<svg id="Layer_1" data-name="Layer 1" xmlns="http://www.w3.org/2000/svg" viewBox="0 0 367.4502 336.6758"><defs><style>.cls-1{fill:#be3a26;}.cls-2{fill:#16141a;fill-rule:evenodd;}</style></defs><title>probus</title><path class="cls-1" d="M130.2747,42.42A127.9022,127.9022,0,0,1,167.02,22.8887a141.3346,141.3346,0,0,1,42.0352-7.3506c3.601.01,7.23-.0513,10.8413.229,1.8066.1284,3.6308.1611,5.4336.3755l5.4277.5942c.91.0835,1.8076.2344,2.7075.38l2.7012.4443,2.7031.4615c.9019.1538,1.7861.38,2.6817.5683l5.3642,1.2007,5.31,1.4546a138.5089,138.5089,0,0,1,20.7007,7.7475,140.2155,140.2155,0,0,1,19.4389,10.8121A149.496,149.496,0,0,1,325.64,69.6767l1.8081,2.1651,1.7149,2.2388c1.1279,1.5053,2.3,2.9824,3.3867,4.52l3.1924,4.667c1.08,1.5488,1.9931,3.2016,2.9946,4.8017l1.4688,2.4224c.4878.8091.915,1.6518,1.3745,2.477.8974,1.6626,1.82,3.315,2.69,4.9942,1.6279,3.4131,3.3174,6.8066,4.7114,10.3315,1.5259,3.4722,2.7432,7.0654,4.0176,10.6406l1.6533,5.4473c.2637.9116.565,1.814.795,2.7349l.687,2.7636a149.1749,149.1749,0,0,1,3.8891,22.4395l.482,5.68c.0883,1.896.1347,3.7939.1987,5.6919l.082,2.8471-.0483,2.8482c-.0425,1.8984-.0518,3.7988-.1314,5.6973-.2763,3.7919-.47,7.5932-1.0131,11.3642l-.3555,2.8325c-.1084.9458-.2432,1.8877-.4214,2.8238l-.9927,5.6259c-.3344,1.875-.831,3.7178-1.2441,5.5767l-.6528,2.7817c-.2339.9229-.5132,1.8345-.7686,2.752-.53,1.83-1.0332,3.6675-1.5952,5.4873l-1.8408,5.41c-.5874,1.8129-1.3526,3.56-2.0484,5.332-.72,1.7622-1.3882,3.5464-2.2163,5.2622l-2.39,5.1851-2.6294,5.0644a151.8427,151.8427,0,0,1-12.2354,19.208,149.0486,149.0486,0,0,1-14.8887,17.1582l-2.0078,2.0054-2.09,1.9194c-1.4082,1.2627-2.7593,2.5865-4.2178,3.79l-4.3711,3.6089c-1.4624,1.1933-3.0092,2.2827-4.5112,3.4238l-2.2695,1.6894-2.3438,1.5865c-1.57,1.0449-3.1069,2.1367-4.7221,3.1089l-4.85,2.9c-1.6089.9746-3.3047,1.8046-4.9527,2.708l-2.4887,1.3247c-.8379.4248-1.6954.8135-2.542,1.2207-1.7032.7959-3.3858,1.6284-5.104,2.3828-3.4712,1.4365-6.9053,2.9414-10.4722,4.1094-3.5122,1.3042-7.1421,2.2583-10.7173,3.3286-3.6411.8559-7.2393,1.8418-10.92,2.4575-1.8355.32-3.648.7441-5.4971.97l-5.5283.7261c-1.84.2358-3.7.3169-5.5449.478l-2.77.2105c-.9218.07-1.85.0644-2.7739.0991l-5.539.1421-5.5293-.1289c-.92-.0293-1.8394-.0337-2.7579-.0855l-2.7519-.2334-5.4873-.4887a146.6522,146.6522,0,0,1-42.0723-11.2847,140.5754,140.5754,0,0,1-35.977-22.9937,130.9215,130.9215,0,0,1-26.4243-32.1479,168.3623,168.3623,0,0,0,32.0117,24.4482l4.3413,2.3814c.729.3828,1.4243.8144,2.1665,1.1714l2.2153,1.0815,4.4092,2.1485,4.5156,1.895,2.2456.9443c.7525.3032,1.5254.5635,2.2852.8467l4.5586,1.6655c1.52.541,3.0913.9512,4.6264,1.4326,1.5518.4375,3.0562.9917,4.6372,1.3194,3.1368.7226,6.1968,1.6259,9.3619,2.1255,1.57.288,3.1284.6059,4.6948.872l4.7324.605,2.3555.3052c.7861.0913,1.5805.13,2.3686.1987l4.7242.375c.7827.0825,1.5732.0977,2.3632.1055l2.3658.0454c1.5761.0137,3.143.103,4.7158.06l4.7109-.1879,2.3467-.083c.7817-.0411,1.5625-.127,2.3423-.1875l4.67-.3926,4.6343-.6319c.7695-.1132,1.5434-.185,2.3076-.331l2.2915-.4331c1.5229-.3067,3.0566-.5269,4.563-.8955,1.5068-.3653,3.01-.732,4.5156-1.0679,1.5108-.3125,2.9785-.8169,4.4673-1.2109,2.9853-.7632,5.8711-1.8682,8.7871-2.8145,2.8491-1.1606,5.74-2.1748,8.5024-3.5093,1.3819-.6611,2.8169-1.188,4.167-1.9126l4.0977-2.0449c1.3506-.709,2.6645-1.4892,3.998-2.2246.6617-.3774,1.334-.7339,1.9873-1.125l1.9336-1.2183a130.8314,130.8314,0,0,0,14.771-10.64,129.1673,129.1673,0,0,0,13.1573-12.4687,131.603,131.603,0,0,0,32.3256-63.3365,139.5132,139.5132,0,0,0,2.2974-17.8125c.0835-1.498.104-3.0005.165-4.5005l.0806-2.2519-.039-2.2525-.0816-4.5058-.2915-4.4942c-.0552-1.5029-.2485-2.9907-.4189-4.4819-.1924-1.4878-.2823-2.9927-.5484-4.4692l-.7295-4.4444c-.2187-1.4873-.6-2.9409-.8862-4.416l-.46-2.207c-.1523-.7363-.375-1.4546-.5576-2.1831l-1.1509-4.3623c-.9423-2.854-1.726-5.7695-2.8354-8.5733-.9683-2.8588-2.2153-5.6064-3.3706-8.3989-.6226-1.3755-1.292-2.73-1.9321-4.1011-.3311-.68-.6289-1.3779-.9859-2.0444l-1.0742-2c-.7363-1.3218-1.3794-2.7017-2.1865-3.9849l-2.314-3.9218c-.7861-1.3-1.6558-2.5464-2.477-3.8277l-1.2544-1.9091-1.3438-1.8462c-.9106-1.2193-1.7539-2.4976-2.7173-3.6792l-2.8647-3.5752c-.9575-1.1919-2.0112-2.2994-3.0108-3.459l-1.5156-1.7271-1.5859-1.6621a123.6873,123.6873,0,0,0-13.5542-12.5068,138.837,138.837,0,0,0-68.523-29.2847,149.2532,149.2532,0,0,0-38.9907-.1064A162.5046,162.5046,0,0,0,130.2747,42.42Z"/><path class="cls-2" d="M125.7083,269.2113C95.3388,244.4549,89.44,212.435,98.907,176.0052c-.3837-.0769-.7631-.1546-1.145-.2316-1.4624,3.8294-3.1978,7.58-4.3106,11.5087a98.8387,98.8387,0,0,0-2.6039,12.8907c-.6083,4.2382-.9241,8.5319-1.1083,12.8157-.1806,4.26-.0394,8.5318-.0394,12.8416-3.5-5.0128-5.36-10.845-6.4726-16.9268-2.7363-14.9588-1.1369-29.7452,2.3848-44.35,2.0519-8.5131,4.7149-16.8777,7.0862-25.3147a1.904,1.904,0,0,0-.29-1.6386c-12.584,18.7219-21.8975,38.55-20.9744,61.9115q3.3812-10.1544,6.7642-20.3134.4146.1463.83.289c-5.0459,30.4652,2.1352,56.1913,19.4843,73.1761-20.1955-8.2571-40.8505-40.4318-32.3384-72.7423-5.1568,5.0906-7.67,17.9555-5.8321,29.8408-3.731-3.3838-6.6051-14.3336-6.82-25.3039a66.0387,66.0387,0,0,1,4.9261-26.7852c-7.7222,6.3823-10.7842,14.289-12.8121,22.9084-5.5925-9.2572-1.37-33.1863,16.8874-48.9823-9.5748,1.5107-16.2165,9.8163-23.0756,29.0089-1.4365-17.9994,6.5559-30.4992,22.2429-39.41-7.8485.1129-14.5788-1.0358-21.0765-5.8706,17.3822,1.7979,32.0468-4.6487,46.8348-10.6662,13.09-5.3267,26.1375-10.7841,39.4048-15.6369a37.6132,37.6132,0,0,1,21.8735-1.6628c3.6889.8855,7.1927,2.5423,11.1885,3.5109q-5.5939-4.05-11.1885-8.1015A45.9406,45.9406,0,0,1,167.261,84.38c6.1559,1.687,12.158,3.9358,19.1817,6.2526-1.8266-2.2586-3.0761-4.0065-4.53-5.56-8.1151-8.674-18.2122-14.2324-29.2791-18.086-15.517-5.4065-31.3812-7.87-47.7739-4.8376-.6306.1181-1.2523.2907-1.875.4463a5.424,5.424,0,0,0-1.501.5574c22.1106-1.6888,43.2157,1.3489,62.6319,12.6144-24.787-7.5819-49.3572-8.9209-73.594,2.1718,6.1756-1.3873,12.3083-3.0332,18.5377-4.0869,6.3144-1.0682,12.7245-1.5127,19.0388.6743-8.6088,1.1156-16.9626,2.7615-23.5551,9.0669,16.1853-5.7858,32.3964-10.8416,49.5192-3.93C134.2589,79.1648,116.5869,88.27,97.7737,92.18c-15.738,3.2693-31.426,4.74-47.0924.0088C31.78,86.4784,18.02,73.9731,6.6643,58.3425,27.2989,74.6234,49.74,83.8851,76.4235,76.9832c-16.48.0267-32.4644-2.1049-46.8167-11.2191a115.7278,115.7278,0,0,0,63.7354,4.1408c-5.8348,0-11.0658.2745-16.2549-.077a93.2258,93.2258,0,0,1-15.5788-2.1442c-5.1185-1.238-10.0122-3.4044-15.0036-5.1648.1092-.3631.2164-.7236.3238-1.0878,2.6406.4616,5.2757.9528,7.9209,1.38,10.5722,1.7049,20.65-.4553,30.6834-3.629,10.0955-3.1942,20.1452-7.0013,30.5171-8.7483,19.3249-3.2578,38.361-1.8239,55.6806,8.7179a38.8344,38.8344,0,0,1,16.9472,21.1891,4.76,4.76,0,0,1,.26.9195,3.6137,3.6137,0,0,1-.1673.8865c-11.693-13.1841-26.4032-20.2768-43.6-22.5157,17.5011,5.7517,34.12,12.8828,45.7461,29.0913.5036-11.3157-4.6273-19.3894-11.8782-26.609,4.273.4043,8.7626,3.155,17.2426,9.89-1.1163-1.4483-2.1173-2.9948-3.3562-4.3258-7.5281-8.0784-17.112-12.8389-27.3336-16.358-12.3647-4.2552-25.065-6.6265-38.2608-5.6032a50.7327,50.7327,0,0,1,19.2239-3.2935c19.503-.0259,36.9719,6.6248,53.2333,16.8632,10.7966,6.7993,20.5772,14.8176,28.0945,25.2565a37.6867,37.6867,0,0,1,4.5272,8.4638c1.6977,4.427.5851,6.6712-3.6434,8.8271-5.8912,3.0028-6.5915,7.538-1.4375,11.8611,9.5391,8.0033,19.3394,15.6951,28.9258,23.6429a81.9431,81.9431,0,0,1,9.5426,9.5c-7.9217.4831-14.541-3.2811-21.8242-5.5316a39.4785,39.4785,0,0,0,4.1711,3.6791c4.0218,2.6656,8.1419,5.1818,12.2628,7.6937,1.8964,1.1575,3.2614,2.4589,2.4868,4.9314-.8516,2.7336-2.9555,2.7452-5.2069,2.4329-4.605-.642-9.1983-1.3507-13.01,2.4269-.3534.348-1.2237.2979-1.8382.2443-9.2572-.8123-15.8543,3.7264-21.0147,10.7421-5.2195,7.0916-7.82,14.9758-5.9109,23.8914a18.1473,18.1473,0,0,0,6.3609,10.1707c.8219.703,2.0644,2.1672,1.8336,2.5957a5.6211,5.6211,0,0,1-2.933,2.5458c-2.7122.8633-5.56,1.3016-7.6829,1.7658-1.1317-3.1-2.7319-6.0093-3.2131-9.0981-.9142-5.8572-1.19-11.8156-1.7049-17.4661-1.5968.6708-1.5968.6708-2.3205,8.3716-3.1826-2.8213-6.291-5.9483-9.7787-8.5729-4.1076-3.087-8.598-5.6577-12.81-8.6106-1.8865-1.3238-3.4582-3.0511-1.7453-5.6309-.28-.0751-.5321-.2244-.6287-.1548-1.9384,1.358-3.858,2.7427-5.7822,4.1219,1.7408,1.7174,3.2015,3.9922,5.2786,5.0407,4.7551,2.399,9.8118,4.2006,14.974,6.3366-12.744,4.4118-20.6595,13.194-24.0183,25.7441-3.3947,12.6858.7951,24.0711,7.7384,34.89-5.4039-2.0563-15.3033-10.2142-21.9415-19.1138-5.7114-7.6614-10.6652-15.89-15.9625-23.8816,8.8665,35.8592,32.7738,58.71,65.478,74.8283-35.0843-4.9939-61.2738-21.4672-76.5467-53.6356,1.9931,17.7945,14.1234,30.0117,23.1107,44.1637-3.3742-2.5242-6.7482-5.0547-10.7486-8.05,4.4287,8.9755,11.0052,15.2209,17.6828,21.7455-1.9483-.8846-3.9681-1.6424-5.8394-2.6746-17.4439-9.5989-30.0493-23.8807-38.4855-41.6332-3.9161-8.2446-6.1372-17.2988-9.1294-25.9863-.1618-.467-.3478-.9232-.6206-1.6441-1.9886,6.5362-1.4115,14.0428,1.6816,23.4487,3.553,10.819,9.3047,20.4636,15.8363,29.6922Q124.7983,267.9354,125.7083,269.2113Zm12.52-43.8819c.2622-.44.3838-.5609.3587-.6137-.2244-.4812-.4562-.9633-.7209-1.424-10.388-18.0279-16.4215-37.21-14.6682-58.2326,1.1476-13.78,7.1167-24.6525,20.6462-29.9579,3.9072-1.5315,8.1418-2.2265,12.1608-3.2893-1.254-.0563-2.6406-.2057-4.0207-.16a38.6513,38.6513,0,0,0-5.7643.4527c-15.9151,2.9867-25.3691,13.431-31.2872,27.6591-5.4279,13.06-6.7554,26.7645-5.1632,40.7136,1.4884,13.0616,5.4565,25.3173,13.1627,36.1632a7.1392,7.1392,0,0,0,.5519.7915,14.92,14.92,0,0,0,1.2872.9813c-7.6569-18.282-11.2565-36.2893-6.3841-55.2646C122.1811,198.5361,127.6369,213.03,138.2278,225.3294Zm68.888-110.7474C187.9751,99.9057,166.5909,96.3063,143.59,102.82c-18.867,5.3464-37.4763,25.2984-39.3969,41.175,11.8988-22.284,28.1351-38.1847,55.6752-38.2071-2.8517,13.1322,4.927,20.5183,13.5411,27.4462a27.5217,27.5217,0,0,0-3.2023-5.3035c-1.8348-2.5037-3.9807-4.8233-5.5-7.5-1.75-3.0763-2.3874-6.4664-.3873-10.0141,7.4762,11.0652,15.4409,15.2245,22.1463,11.7236-14.5707-5.16-20.3189-9.95-19.8564-16.82C181.3969,102.9247,194.0684,109.5959,207.1158,114.582ZM153.9212,94.6792c-3.4485-1.7738-6.259-3.7677-9.388-4.7122-5.9252-1.7882-11.75-.1942-17.2344,2.1046-16.82,7.0453-29.2881,19.1962-39.1858,34.191-5.6436,8.5478-9.6607,17.7927-11.1179,28.0293a8.6681,8.6681,0,0,0,1.0358-1.9447c5.3554-12.8575,12.0822-24.8825,21.5891-35.188,9.19-9.9623,19.69-18.1291,33.2282-20.91C139.3478,94.9126,146.1818,95.2,153.9212,94.6792ZM151.1087,202.116c-1.763-7.2992-3.9277-14.1529-5.0029-21.1713-2.1021-13.7307,2.1629-26.8585,15.59-32.6818.279-.1189.4749-.424.9114-.8283-1.4642.2058-2.7022.3166-3.9152.5564-12.118,2.4027-18.6782,10.7708-18.1532,23.1392C141.0161,182.3921,145.71,192.1887,151.1087,202.116ZM199.7835,150.24a113.487,113.487,0,0,1,33.8-3.8481A60.3609,60.3609,0,0,0,199.7835,150.24Zm26.1215-15.7934q.2884-.65.5759-1.2988c-5.3133-2.0065-9.013-8.4666-16.221-5.7742C215.6091,129.794,220.7561,132.12,225.905,134.4464Zm-25.7261,20.2454c8.1579-2.188,15.8614-4.2534,23.27-6.24C215.5448,148.4687,207.9432,150.9357,200.1789,154.6918Zm15.9956,6.54c5.8894-2.926,11.777-5.8537,17.866-8.8789C227.2019,153.8339,221.1819,156.4888,216.1745,161.2316Z"/><path class="cls-2" d="M45.3751,100.8548A47.5967,47.5967,0,0,1,23.37,81.0844C46.6507,100.4953,73.3088,99.9513,101.0387,94.91c-1.4394.7567-2.87,1.5323-4.32,2.2649C85.3991,102.89,73.8554,108.0155,61.1,109.5335c-9.9335,1.1789-19.0513-.5091-26.1769-8.311-.28-.3059-.501-.6664-.7835-1.0483,3.7335.6038,7.37,1.1906,11.0059,1.7773Q45.2607,101.4055,45.3751,100.8548Z"/><path class="cls-2" d="M224.1642,172.65c-.255,3.9735-.9339,8.4138-.7138,12.81.2468,4.8678,3.095,8.7947,6.1883,12.4355.3451.41.7128.8006,1.0545,1.2138,2.9081,3.53,3.1,5.3314.76,7.0926-2.9985,2.2631-6.4218,1.6253-8.8817-1.73a37.47,37.47,0,0,0,3.0352-2.6246,30.2207,30.2207,0,0,0,2.2138-2.96c-.4042-.3543-.54-.5806-.695-.5931-7.5013-.5833-10.2215-3.8222-9.1607-11.4319A31.2725,31.2725,0,0,1,224.1642,172.65Z"/><path class="cls-2" d="M244.8461,165.5718c-8.7581,4.5923-15.4911,10.3735-19.1022,19.7668-.1977-1.5359-.74-3.1219-.5224-4.6.5385-3.6612,1.3552-7.2894,2.2265-10.8907.1725-.7165.9973-1.3624,1.6575-1.8605C233.6961,164.5009,238.7608,163.7156,244.8461,165.5718Z"/><path class="cls-2" d="M247.65,162.68c.959.2154,2.8464.0992,3.4941.9393.6949.8972.6387,2.8569.1778,4.0725a40.3628,40.3628,0,0,1-4.5611,8.5856C247.0439,171.9182,247.3293,167.5593,247.65,162.68Z"/><path class="cls-2" d="M253.8457,176.6332c.9779-2.3517,1.7051-3.7712,2.1559-5.274.4534-1.501.635-3.0852.9892-4.9081.9653.05,2.0592.1055,3.5093.1788C259.8283,170.8976,257.4578,173.6894,253.8457,176.6332Z"/><path class="cls-2" d="M225.9684,200.445a8.24,8.24,0,0,1-2.1951,1.2828,6.768,6.768,0,0,1-3.4313.034c-.4553-.1549-.47-1.6182-.6843-2.4886a30.6947,30.6947,0,0,1,3.172-.1421,16.29,16.29,0,0,1,2.4777.4954C225.5274,199.8994,225.7493,200.173,225.9684,200.445Z"/></svg>