<svg width="20" height="17" viewBox="0 0 20 17" fill="none" xmlns="http://www.w3.org/2000/svg">
<g opacity="0.8">
<path d="M20 2.30021C19.2483 2.6263 18.4534 2.84187 17.64 2.94021C18.4982 2.42753 19.1413 1.62099 19.45 0.67021C18.6436 1.15027 17.7608 1.48851 16.84 1.67021C16.2245 1.00278 15.405 0.558506 14.5098 0.407061C13.6147 0.255616 12.6945 0.405568 11.8938 0.833399C11.093 1.26123 10.4569 1.94274 10.0852 2.77105C9.71355 3.59935 9.62729 4.5276 9.84 5.41021C8.20943 5.32774 6.61444 4.90316 5.15865 4.16407C3.70287 3.42498 2.41885 2.3879 1.39 1.12021C1.02914 1.75038 0.839519 2.46403 0.84 3.19021C0.83872 3.86459 1.00422 4.52883 1.32176 5.12377C1.63929 5.71872 2.09902 6.22592 2.66 6.60021C2.00798 6.58247 1.36989 6.40751 0.8 6.09021V6.14021C0.804887 7.0851 1.13599 7.9993 1.73731 8.72818C2.33864 9.45705 3.17326 9.95585 4.1 10.1402C3.74326 10.2488 3.37287 10.306 3 10.3102C2.74189 10.3072 2.48442 10.2838 2.23 10.2402C2.49391 11.053 3.00462 11.7634 3.69107 12.2724C4.37753 12.7814 5.20558 13.0638 6.06 13.0802C4.6172 14.2155 2.83588 14.8351 1 14.8402C0.665735 14.8413 0.331736 14.8213 0 14.7802C1.87443 15.9905 4.05881 16.6329 6.29 16.6302C7.82969 16.6462 9.35714 16.3552 10.7831 15.7743C12.2091 15.1934 13.505 14.3341 14.5952 13.2467C15.6854 12.1593 16.548 10.8656 17.1326 9.44112C17.7172 8.01663 18.012 6.48994 18 4.95021V4.42021C18.7847 3.83502 19.4615 3.11763 20 2.30021Z" fill="#E5E5E5"/>
</g>
</svg>
