<svg width="179" height="36" viewBox="0 0 179 36" fill="none" xmlns="http://www.w3.org/2000/svg">
<path d="M28.75 26.75C28.75 27.413 28.4866 28.0489 28.0178 28.5178C27.5489 28.9866 26.913 29.25 26.25 29.25H3.75C3.08696 29.25 2.45107 28.9866 1.98223 28.5178C1.51339 28.0489 1.25 27.413 1.25 26.75V13C1.25 12.337 1.51339 11.7011 1.98223 11.2322C2.45107 10.7634 3.08696 10.5 3.75 10.5H8.75L11.25 6.75H18.75L21.25 10.5H26.25C26.913 10.5 27.5489 10.7634 28.0178 11.2322C28.4866 11.7011 28.75 12.337 28.75 13V26.75Z" stroke="white" stroke-width="2" stroke-linecap="round" stroke-linejoin="round"/>
<path d="M15 24.25C17.7614 24.25 20 22.0114 20 19.25C20 16.4886 17.7614 14.25 15 14.25C12.2386 14.25 10 16.4886 10 19.25C10 22.0114 12.2386 24.25 15 24.25Z" stroke="white" stroke-width="2" stroke-linecap="round" stroke-linejoin="round"/>
<path d="M46.032 17.624C46.032 22.64 49.704 26.144 54.384 26.144C58.008 26.144 60.888 24.344 62.136 21.128H59.52C58.608 23.12 56.832 24.248 54.384 24.248C50.88 24.248 48.264 21.704 48.264 17.624C48.264 13.52 50.88 10.976 54.384 10.976C56.832 10.976 58.608 12.104 59.52 14.12H62.136C60.888 10.88 58.008 9.056 54.384 9.056C49.704 9.056 46.032 12.608 46.032 17.624ZM76.6191 26H78.9231L72.8991 9.368H70.3791L64.3311 26H66.6351L67.9791 22.28H75.2751L76.6191 26ZM74.6511 20.504H68.6031L71.6271 12.056L74.6511 20.504ZM83.7429 17.216V11.072H86.9589C89.4549 11.072 90.5109 12.224 90.5109 14.168C90.5109 16.04 89.4549 17.216 86.9589 17.216H83.7429ZM92.7429 14.168C92.7429 11.432 90.8949 9.272 86.9589 9.272H81.5589V26H83.7429V19.016H86.9589C91.1109 19.016 92.7429 16.712 92.7429 14.168ZM104.913 22.424C104.817 17.72 97.1854 19.424 97.1854 16.304C97.1854 15.248 98.1454 14.48 99.7534 14.48C101.505 14.48 102.513 15.44 102.609 16.76H104.793C104.649 14.192 102.729 12.632 99.8254 12.632C96.8974 12.632 95.0014 14.288 95.0014 16.304C95.0014 21.2 102.777 19.496 102.777 22.424C102.777 23.504 101.817 24.368 100.089 24.368C98.2414 24.368 97.1134 23.408 96.9934 22.136H94.7374C94.8814 24.536 97.0414 26.216 100.113 26.216C103.017 26.216 104.913 24.584 104.913 22.424ZM107.18 19.376C107.18 23.456 109.892 26.216 113.396 26.216C115.82 26.216 117.524 24.968 118.316 23.552V26H120.524V12.848H118.316V15.248C117.548 13.88 115.868 12.632 113.42 12.632C109.892 12.632 107.18 15.272 107.18 19.376ZM118.316 19.4C118.316 22.496 116.252 24.296 113.852 24.296C111.452 24.296 109.412 22.472 109.412 19.376C109.412 16.28 111.452 14.528 113.852 14.528C116.252 14.528 118.316 16.352 118.316 19.4ZM124.215 26H126.399V8.24H124.215V26ZM149.105 26H151.265V18.248C151.265 14.48 148.937 12.608 145.937 12.608C143.921 12.608 142.049 13.64 141.281 15.536C140.417 13.568 138.617 12.608 136.457 12.608C134.729 12.608 133.169 13.352 132.305 14.744V12.848H130.121V26H132.305V18.752C132.305 15.92 133.817 14.504 136.025 14.504C138.185 14.504 139.625 15.872 139.625 18.56V26H141.785V18.752C141.785 15.92 143.297 14.504 145.505 14.504C147.665 14.504 149.105 15.872 149.105 18.56V26ZM154.848 26H157.032V12.848H154.848V26ZM155.976 10.712C156.768 10.712 157.416 10.064 157.416 9.224C157.416 8.384 156.768 7.736 155.976 7.736C155.136 7.736 154.488 8.384 154.488 9.224C154.488 10.064 155.136 10.712 155.976 10.712ZM166.346 14.48C168.602 14.48 170.522 15.896 170.498 18.464H162.194C162.434 15.896 164.21 14.48 166.346 14.48ZM172.49 21.944H170.138C169.658 23.36 168.41 24.368 166.442 24.368C164.21 24.368 162.338 22.904 162.17 20.24H172.682C172.73 19.784 172.754 19.4 172.754 18.92C172.754 15.32 170.258 12.632 166.442 12.632C162.602 12.632 159.938 15.248 159.938 19.4C159.938 23.576 162.698 26.216 166.442 26.216C169.706 26.216 171.818 24.344 172.49 21.944ZM177.773 24.656C177.773 23.816 177.125 23.168 176.333 23.168C175.493 23.168 174.845 23.816 174.845 24.656C174.845 25.496 175.493 26.144 176.333 26.144C177.125 26.144 177.773 25.496 177.773 24.656Z" fill="#FFC73E"/>
</svg>
